PathFileType	4	(X/Y/Z)	Patient4_TMGait_0pt4_02_left_02.trc.trc
DataRate	CameraRate	NumFrames	NumMarkers	Units	OrigDataRate	OrigDataStartFrame	OrigNumFrames
72.538860103627	72.538860103627	4	33	mm	72.538860103627	1	       141
Frame#	Time	Sacral			L.Shoulder			Chest			R.Shoulder			Neck			R.ASIS			L.ASIS			R.Thigh.Superior			R.Thigh.Lateral			R.Thigh.Inferior			R.Patella			L.Thigh.Superior			L.Thigh.Lateral			L.Thigh.Inferior			L.Patella			L.Shank.Superior			L.Shank.Lateral			L.Shank.Inferior			R.Shank.Superior			R.Shank.Lateral			R.Shank.Inferior			R.Heel			R.Midfoot.Superior			R.Midfoot.Lateral			R.Toe			L.Heel			L.Midfoot.Lateral			L.Midfoot.Superior			L.Toe			L.Elbow			L.Wrist			R.Elbow			R.Wrist			
		X1	Y1	Z1	X2	Y2	Z2	X3	Y3	Z3	X4	Y4	Z4	X5	Y5	Z5	X6	Y6	Z6	X7	Y7	Z7	X8	Y8	Z8	X9	Y9	Z9	X10	Y10	Z10	X11	Y11	Z11	X12	Y12	Z12	X13	Y13	Z13	X14	Y14	Z14	X15	Y15	Z15	X16	Y16	Z16	X17	Y17	Z17	X18	Y18	Z18	X19	Y19	Z19	X20	Y20	Z20	X21	Y21	Z21	X22	Y22	Z22	X23	Y23	Z23	X24	Y24	Z24	X25	Y25	Z25	X26	Y26	Z26	X27	Y27	Z27	X28	Y28	Z28	X29	Y29	Z29	X30	Y30	Z30	X31	Y31	Z31	X32	Y32	Z32	X33	Y33	Z33	

1	2.540000000000	876.604017428039	1000.586210567924	518.677217901297	1036.719530580784	1431.968234051790	321.871903424613	1149.431975894360	1371.023269534713	479.564055626803	1070.943044531482	1443.643996348097	656.165826581541	1024.774607231864	1495.710888922273	477.248046841336	1115.952248043438	945.979998169693	622.935751101998	1082.615822859891	963.392904298175	350.219678930683	1155.297960803681	741.747258202000	589.001452971168	1074.782763518297	632.101094413867	651.724659076391	1146.622649404969	580.049054998022	567.621543458117	1144.083835743574	491.924512833236	571.779550919539	1170.008275765395	778.912753926155	367.496992988580	1120.323996038017	653.909573245558	289.013626871427	1231.096673473234	593.987524158622	338.479589223454	1244.836555026408	505.342837898108	329.497509650847	1177.869976031937	437.348337098450	325.850098693148	1032.236953219286	395.543024828284	288.208008255685	1025.089884649723	263.656020761522	339.866310051454	1114.482507017293	402.940577912856	579.546624362903	1043.059839300537	300.672855280705	642.885129673668	1078.868942658188	205.411855607551	576.899223878773	940.008175780117	42.689306185451	550.937049333368	1111.417888743611	97.047713085647	584.311739862865	1024.055891434949	37.390445965004	625.098265485055	1232.363826760220	43.980820996983	611.244557689734	838.499656679378	205.330246843120	392.325753569440	886.130417937347	155.551114215051	307.674810050098	993.864066891082	156.588832561893	320.320281069045	1061.193683774922	38.589847385961	286.085115924210	999.454871708085	1079.159059134741	210.184280140362	1066.338024581218	826.074647093358	193.655924425100	1078.975888815352	1114.277967832253	812.040592911399	1306.273924017322	1012.231747491083	754.473675456863	
2	2.553785714286	875.553274484701	1002.051233504860	521.621264625293	1035.428485067554	1432.466424948615	323.031923525334	1149.781541795339	1371.283366650992	479.402955869772	1073.734901740941	1444.646882995093	656.734267706950	1025.424439472640	1496.386818149184	478.068702615048	1115.219600781889	945.853283247204	623.286792030327	1079.469277566294	964.606994576382	351.027596719500	1152.060220714566	741.070822563931	588.798554776567	1070.972814329875	632.303132374600	652.263975527412	1141.401520982346	579.571361633135	567.591695641509	1138.160147260173	491.784832608551	571.877411838710	1168.214236434412	782.286019785972	368.158176035999	1120.116457299682	656.738037314338	289.645593525088	1231.659089981543	598.300036212465	338.922619046373	1247.047139158883	510.661190787138	329.684229858843	1183.398745269971	441.075419978299	325.638986669262	1040.638290206855	391.690031630978	288.562151016803	1041.699554561647	259.705949802237	338.712773112780	1108.488403369941	402.961235883920	579.741941425163	1037.188108089584	300.679775235795	643.144822465228	1072.923636022826	205.413642416399	577.042271108893	934.151866900733	42.643156202884	550.998224984238	1105.551584472074	97.066793241064	584.363152879719	1018.162829562974	37.371028075552	625.134640925153	1226.439218275729	43.981732340699	611.219691205411	860.698038346234	189.375634193520	392.257410836989	909.907923511688	144.419438310643	306.268181286223	1016.758526642958	152.366590120393	317.944762239183	1090.782557484105	40.534844313691	280.899239698496	990.339875512524	1080.340759489161	213.318933410126	1050.167242639569	825.740639163296	198.566587729351	1088.824845086839	1116.010288651178	812.393298338045	1318.482559963177	1027.608324668324	749.692738374537	
3	2.567571428571	874.514419597263	1003.492483844714	524.512248071967	1034.137604889583	1432.946739286820	324.174299541382	1150.135233842090	1371.500159953601	479.202886995795	1076.556263524152	1445.595507357932	657.267184606892	1026.090267983553	1497.035199527848	478.874320586312	1114.478193936329	945.700539382858	623.586396954338	1076.338530648876	965.793795641393	351.780073065573	1148.805134245251	740.393700736940	588.546539952927	1067.173678916862	632.493424615096	652.783677410896	1136.184164123925	579.093263715448	567.548452824542	1132.243693201903	491.647461494685	571.978197094775	1166.342294665571	785.507300901162	368.829980377268	1119.767526660065	659.425056572218	290.310195624362	1231.958529187619	602.376200129904	339.532038490288	1248.989816399192	515.819651388439	330.018927129057	1188.737079555278	444.708832609168	325.541942059243	1049.147753250735	387.660245966146	288.791698933032	1058.459277739990	255.742963131437	337.543400365676	1102.521002327079	402.982834469410	579.943846570634	1031.339064087815	300.681217669767	643.403041225472	1066.999587882454	205.420459106981	577.185617099822	928.312814408118	42.599862701938	551.056583509071	1099.703373307186	97.077526332216	584.405669131728	1012.292449580883	37.350915159187	625.169088677122	1220.540062003024	43.982656735959	611.200995815074	883.289120060362	173.362030362973	391.866227992147	934.167880859354	133.310422097562	304.676795847455	1039.947379772594	148.228675185003	315.594869278472	1120.690369822501	42.767171794455	275.978440301037	981.283735184302	1081.536098270740	216.444518546368	1034.177991128414	825.475144139533	203.460065450632	1098.704476423464	1117.686375056229	812.649366131308	1330.510438369561	1042.885969240959	744.840103191471	
4	2.581357142857	873.504243072054	1004.874500645411	527.280537476711	1032.857871767488	1433.391518289139	325.269401813803	1150.490745508896	1371.636702442314	478.928884264026	1079.400701200934	1446.435888699441	657.725044796086	1026.777933445326	1497.626909509095	479.640550768539	1113.727034182730	945.505260614035	623.786869821529	1073.262108152687	966.915153694400	352.421894706427	1145.547957006074	739.717840219541	588.218530897120	1063.417478374909	632.659332595687	653.263208525411	1131.012964961932	578.615318712669	567.483508727112	1126.383714657165	491.511384031248	572.083019124125	1164.328766772238	788.411235759969	369.516625503049	1119.156069905575	661.831971379656	291.008523994559	1231.775320225309	605.985175819533	340.406423286353	1250.415522017906	520.640596582766	330.604063291450	1193.672630045034	448.146376714828	325.631864012465	1057.762170000050	383.386597217601	288.809658739463	1075.314835668434	251.838551625585	336.362834996354	1096.637035156708	403.000190948989	580.152103433339	1025.563941877797	300.674170465141	643.659186257578	1061.142980875139	205.430593736565	577.331560346130	922.529847952194	42.562972046413	551.110307344928	1093.913308096022	97.075214965553	584.435526420956	1006.487716819712	37.329763884709	625.200943954463	1214.711665847779	43.982119973056	611.191911458078	906.363624879006	157.475039386269	390.941228463960	959.054437615203	122.402031240609	302.817255643123	1063.432811632534	144.319404343990	313.334081266340	1150.852547442005	45.512983484330	271.627295275905	972.406043613425	1082.748299913182	219.526974127940	1018.638270477369	825.338472305293	208.275719675224	1108.581273563033	1119.249545032659	812.693749483333	1342.131754286599	1057.855294150514	739.870845385408	
